<svg width="25" height="25" viewBox="0 0 25 25" fill="none" xmlns="http://www.w3.org/2000/svg">
<path d="M11.427 4.58118H4.42698C3.89655 4.58118 3.38784 4.79189 3.01277 5.16696C2.6377 5.54204 2.42698 6.05074 2.42698 6.58118V20.5812C2.42698 21.1116 2.6377 21.6203 3.01277 21.9954C3.38784 22.3705 3.89655 22.5812 4.42698 22.5812H18.427C18.9574 22.5812 19.4661 22.3705 19.8412 21.9954C20.2163 21.6203 20.427 21.1116 20.427 20.5812V13.5812" stroke="white" stroke-width="2" stroke-linecap="round" stroke-linejoin="round"/>
<path d="M18.927 3.08119C19.3248 2.68337 19.8644 2.45987 20.427 2.45987C20.9896 2.45987 21.5292 2.68337 21.927 3.08119C22.3248 3.47901 22.5483 4.01858 22.5483 4.58119C22.5483 5.1438 22.3248 5.68336 21.927 6.08119L12.427 15.5812L8.42698 16.5812L9.42698 12.5812L18.927 3.08119Z" stroke="white" stroke-width="2" stroke-linecap="round" stroke-linejoin="round"/>
</svg>
