<svg width="25" height="25" viewBox="0 0 25 25" fill="none" xmlns="http://www.w3.org/2000/svg">
<path d="M12.5742 22.1289C18.0971 22.1289 22.5742 17.6518 22.5742 12.1289C22.5742 6.60606 18.0971 2.12891 12.5742 2.12891C7.05137 2.12891 2.57422 6.60606 2.57422 12.1289C2.57422 17.6518 7.05137 22.1289 12.5742 22.1289Z" stroke="#ACACAC" stroke-width="2" stroke-linecap="round" stroke-linejoin="round"/>
<path d="M9.66406 9.12899C9.89917 8.46066 10.3632 7.89709 10.974 7.53812C11.5848 7.17915 12.303 7.04793 13.0012 7.1677C13.6995 7.28747 14.3329 7.65051 14.7891 8.19252C15.2454 8.73452 15.4951 9.42051 15.4941 10.129C15.4941 12.129 12.4941 13.129 12.4941 13.129" stroke="#ACACAC" stroke-width="2" stroke-linecap="round" stroke-linejoin="round"/>
<path d="M12.5742 17.1289H12.5842" stroke="#ACACAC" stroke-width="2" stroke-linecap="round" stroke-linejoin="round"/>
</svg>
