<svg width="778" height="768" viewBox="0 0 778 768" fill="none" xmlns="http://www.w3.org/2000/svg">
<path d="M297.836 253.742L349.74 223.642L506.582 494.092L433.452 493.212L297.836 253.742Z" fill="#484ED8"/>
<path d="M637.864 555.174L536.864 555.174L386.061 292.447L238.364 46.3469L343.458 46.3469L637.864 555.174Z" fill="#757BF2"/>
<path d="M552.022 492.994L552.226 552.994L248.077 554.027L284.295 491.084L552.022 492.994Z" fill="#757BF2"/>
<path d="M148.908 633.701L194.864 550.903L776.472 550.903L719.231 637.509L148.908 633.701Z" fill="#3035A6"/>
<path d="M230.029 598.665L183.396 572.76L331.232 306.642L362.348 365.641L230.029 598.665Z" fill="#3035A6"/>
<path d="M310.364 165.174L365.364 258.674L81.1556 767.092L31.5792 671.937L310.364 165.174Z" fill="#484ED8"/>
</svg>
