<svg width="106" height="123" viewBox="0 0 106 123" fill="none" xmlns="http://www.w3.org/2000/svg">
<g clip-path="url(#clip0_92_467)">
<path fill-rule="evenodd" clip-rule="evenodd" d="M0.589756 97C-0.880244 102.74 0.449756 109.21 3.99976 114.77C8.53976 91.13 36.3698 101.18 22.0798 122.88C34.4498 121.88 41.1298 112.33 40.8698 100.57C40.7498 95.03 40.8698 92.02 41.7398 89.5C42.146 88.3582 42.7079 87.278 43.4098 86.29C42.8175 84.8912 42.5082 83.389 42.4998 81.87V81.58C42.525 79.8451 42.9349 78.1374 43.6998 76.58L36.2698 69.35L34.2098 72.08C32.19 74.4824 29.9613 76.7011 27.5498 78.71C26.1202 79.604 24.5762 80.3003 22.9598 80.78C12.9998 84.19 3.64976 85.11 0.589756 97ZM58.7498 76L14.7498 33.16L8.74976 32.1C8.03049 31.9647 7.36851 31.6163 6.84976 31.1L1.73976 26.1C1.0495 25.4253 0.654602 24.5046 0.641483 23.5395C0.628365 22.5743 0.998089 21.6432 1.66976 20.95L7.83976 14.72C8.52207 14.0397 9.44626 13.6577 10.4098 13.6577C11.3732 13.6577 12.2974 14.0397 12.9798 14.72L17.5098 19.21C18.0173 19.7072 18.3654 20.3443 18.5098 21.04L20.5098 28.35L63.9998 70.79L68.4298 66.33C68.4949 66.2635 68.5727 66.2106 68.6586 66.1746C68.7444 66.1385 68.8366 66.1199 68.9298 66.1199C69.0229 66.1199 69.1151 66.1385 69.2009 66.1746C69.2868 66.2106 69.3646 66.2635 69.4298 66.33L72.3198 69.19C72.4424 69.3093 72.5171 69.4694 72.5298 69.64C72.6498 70.53 72.7198 71.25 72.7898 71.86C72.9398 73.35 73.0198 74.1 73.2898 74.36C73.5598 74.62 74.2898 74.66 75.7398 74.76C76.3598 74.76 77.1098 74.86 78.1098 74.96C78.2727 74.972 78.4256 75.0431 78.5398 75.16L100.76 97.56C102.555 99.0215 103.867 100.991 104.523 103.211C105.18 105.431 105.151 107.797 104.44 110C103.908 111.644 103.025 113.153 101.85 114.42C100.685 115.687 99.24 116.663 97.6298 117.27C93.8798 118.66 89.1898 117.93 84.7598 113.46L63.5298 92C63.4133 91.8804 63.3395 91.7257 63.3198 91.56C63.1398 90.35 63.0298 89.37 62.9398 88.56C62.7498 86.95 62.6498 86.11 62.3298 85.8C62.0098 85.49 61.0698 85.43 59.1898 85.37C58.5398 85.37 57.7798 85.37 56.8898 85.28C56.717 85.2724 56.5531 85.2012 56.4298 85.08L53.5898 82.27C53.4579 82.137 53.3838 81.9573 53.3838 81.77C53.3838 81.5827 53.4579 81.403 53.5898 81.27L58.7598 76.05L58.7498 76ZM70.2898 90.64C70.1247 90.4764 69.9936 90.2817 69.9042 90.0671C69.8148 89.8526 69.7687 89.6224 69.7687 89.39C69.7687 89.1576 69.8148 88.9274 69.9042 88.7129C69.9936 88.4983 70.1247 88.3036 70.2898 88.14C70.6233 87.8084 71.0745 87.6223 71.5448 87.6223C72.0151 87.6223 72.4662 87.8084 72.7998 88.14L91.9998 107.6C92.3339 107.932 92.5227 108.382 92.5246 108.853C92.5265 109.324 92.3413 109.776 92.0098 110.11C91.6782 110.444 91.2275 110.633 90.7568 110.635C90.2861 110.637 89.8339 110.452 89.4998 110.12L70.2898 90.64ZM75.5698 85.3C75.2356 84.9698 75.0463 84.5204 75.0435 84.0506C75.0406 83.5808 75.2246 83.1292 75.5548 82.795C75.885 82.4608 76.3344 82.2715 76.8041 82.2687C77.2739 82.2659 77.7256 82.4498 78.0598 82.78L97.3098 102.26C97.4752 102.423 97.6069 102.618 97.6972 102.832C97.7875 103.047 97.8347 103.277 97.8361 103.509C97.8375 103.742 97.793 103.973 97.7053 104.188C97.6176 104.403 97.4882 104.6 97.3248 104.765C97.1613 104.93 96.9668 105.062 96.7524 105.152C96.538 105.243 96.308 105.29 96.0754 105.291C95.8428 105.293 95.6121 105.248 95.3967 105.161C95.1813 105.073 94.9852 104.943 94.8198 104.78L75.5698 85.3ZM66.9998 55.36L72.9398 47.59C80.0898 37.88 98.7298 43.59 103.3 25.84C104.76 20.14 103.43 13.68 99.9098 8.11C95.3698 31.75 67.5498 21.7 81.8398 0C69.4698 1 62.7898 10.55 63.0498 22.31C63.1698 27.47 64.6198 31.68 59.7298 38.22L53.9998 45.83L64.4998 56.06C65.3039 55.7328 66.1426 55.498 66.9998 55.36Z" fill="white"/>
</g>
<defs>
<clipPath id="clip0_92_467">
<rect width="105.01" height="122.88" fill="white"/>
</clipPath>
</defs>
</svg>
