<svg width="25" height="25" viewBox="0 0 25 25" fill="none" xmlns="http://www.w3.org/2000/svg">
<path d="M16.7974 8.15723C18.3887 8.15723 19.9148 8.78937 21.04 9.91459C22.1652 11.0398 22.7974 12.5659 22.7974 14.1572V21.1572H18.7974V14.1572C18.7974 13.6268 18.5866 13.1181 18.2116 12.743C17.8365 12.3679 17.3278 12.1572 16.7974 12.1572C16.2669 12.1572 15.7582 12.3679 15.3832 12.743C15.0081 13.1181 14.7974 13.6268 14.7974 14.1572V21.1572H10.7974V14.1572C10.7974 12.5659 11.4295 11.0398 12.5547 9.91459C13.6799 8.78937 15.2061 8.15723 16.7974 8.15723Z" stroke="white" stroke-width="2" stroke-linecap="round" stroke-linejoin="round"/>
<path d="M6.79736 9.15723H2.79736V21.1572H6.79736V9.15723Z" stroke="white" stroke-width="2" stroke-linecap="round" stroke-linejoin="round"/>
<path d="M4.79736 6.15723C5.90193 6.15723 6.79736 5.2618 6.79736 4.15723C6.79736 3.05266 5.90193 2.15723 4.79736 2.15723C3.69279 2.15723 2.79736 3.05266 2.79736 4.15723C2.79736 5.2618 3.69279 6.15723 4.79736 6.15723Z" stroke="white" stroke-width="2" stroke-linecap="round" stroke-linejoin="round"/>
</svg>
