<svg width="346" height="285" viewBox="0 0 346 285" fill="none" xmlns="http://www.w3.org/2000/svg">
<rect width="346" height="285" fill="none"/>
<path d="M327.08 5H9.89999C8.59991 5 7.31256 5.25606 6.11143 5.75359C4.91031 6.25111 3.81894 6.98034 2.89964 7.89964C1.98034 8.81894 1.25111 9.91031 0.753586 11.1114C0.256064 12.3126 0 13.5999 0 14.9V238.9C0 241.526 1.04303 244.044 2.89964 245.9C4.75625 247.757 7.27435 248.8 9.89999 248.8H131.61C131.61 248.8 139.36 272.75 115.35 285.14H229.2C229.2 285.14 202.09 275.85 209.06 248.8H327.06C329.686 248.8 332.204 247.757 334.06 245.9C335.917 244.044 336.96 241.526 336.96 238.9V14.9C336.96 12.2778 335.92 9.76274 334.067 7.90671C332.215 6.05067 329.702 5.0053 327.08 5Z" fill="#263238"/>
<path d="M172.72 225.27C177.04 231.44 170.29 238.19 164.12 233.88C163.915 233.735 163.735 233.555 163.59 233.35C159.28 227.18 166.03 220.44 172.19 224.74C172.398 224.883 172.577 225.062 172.72 225.27Z" fill="#455A64"/>
<path d="M325.89 18.4299H10.43C8.62407 18.4299 7.16003 19.894 7.16003 21.6999V206.16C7.16003 207.966 8.62407 209.43 10.43 209.43H325.89C327.696 209.43 329.16 207.966 329.16 206.16V21.6999C329.16 19.894 327.696 18.4299 325.89 18.4299Z" fill="#FAFAFA"/>
<path d="M325.89 209.93H10.43C9.43017 209.93 8.47125 209.533 7.76424 208.826C7.05722 208.119 6.66003 207.16 6.66003 206.16V21.6999C6.66003 20.7001 7.05722 19.7412 7.76424 19.0341C8.47125 18.3271 9.43017 17.9299 10.43 17.9299H325.89C326.89 17.9299 327.849 18.3271 328.556 19.0341C329.263 19.7412 329.66 20.7001 329.66 21.6999V206.2C329.649 207.193 329.248 208.142 328.542 208.84C327.836 209.538 326.883 209.93 325.89 209.93ZM10.43 18.9299C9.6962 18.9326 8.99316 19.2253 8.47426 19.7442C7.95535 20.2631 7.66267 20.9661 7.66003 21.6999V206.2C7.66003 206.564 7.73167 206.924 7.87088 207.26C8.01009 207.596 8.21413 207.901 8.47134 208.159C8.72856 208.416 9.03392 208.62 9.37 208.759C9.70607 208.898 10.0663 208.97 10.43 208.97H325.89C326.625 208.97 327.329 208.678 327.849 208.159C328.368 207.639 328.66 206.935 328.66 206.2V21.6999C328.657 20.9661 328.365 20.2631 327.846 19.7442C327.327 19.2253 326.624 18.9326 325.89 18.9299H10.43Z" fill="white"/>
<path d="M33.61 25.81C33.612 26.3207 33.4624 26.8205 33.1801 27.2461C32.8978 27.6717 32.4955 28.0039 32.0243 28.2007C31.553 28.3975 31.0339 28.4501 30.5328 28.3516C30.0317 28.2532 29.5711 28.0083 29.2092 27.6479C28.8474 27.2875 28.6007 26.8278 28.5003 26.327C28.4 25.8263 28.4505 25.307 28.6455 24.835C28.8404 24.363 29.1711 23.9594 29.5956 23.6755C30.0201 23.3916 30.5193 23.24 31.03 23.24C31.7125 23.24 32.3673 23.5104 32.8508 23.9921C33.3344 24.4738 33.6074 25.1275 33.61 25.81Z" fill="#455A64"/>
<path d="M17.98 25.81C17.9721 26.3165 17.8147 26.8094 17.5276 27.2267C17.2405 27.644 16.8364 27.9672 16.3661 28.1556C15.8959 28.344 15.3804 28.3892 14.8846 28.2856C14.3887 28.182 13.9345 27.9341 13.5791 27.5731C13.2237 27.2122 12.9828 26.7542 12.8869 26.2568C12.7909 25.7594 12.8441 25.2447 13.0397 24.7774C13.2354 24.3102 13.5647 23.9111 13.9865 23.6304C14.4082 23.3498 14.9034 23.2 15.41 23.2C15.7509 23.1999 16.0884 23.2677 16.4029 23.3993C16.7173 23.531 17.0024 23.7239 17.2416 23.9668C17.4808 24.2097 17.6692 24.4977 17.796 24.8142C17.9228 25.1306 17.9853 25.4691 17.98 25.81Z" fill="#455A64"/>
<path d="M25.46 25.81C25.46 26.3183 25.3093 26.8152 25.0269 27.2378C24.7445 27.6604 24.3431 27.9899 23.8735 28.1844C23.4039 28.3789 22.8872 28.4298 22.3886 28.3306C21.8901 28.2314 21.4322 27.9867 21.0727 27.6273C20.7133 27.2678 20.4686 26.8099 20.3694 26.3114C20.2702 25.8129 20.3211 25.2961 20.5156 24.8265C20.7101 24.3569 21.0396 23.9555 21.4622 23.6731C21.8848 23.3907 22.3817 23.24 22.89 23.24C23.5716 23.24 24.2253 23.5108 24.7073 23.9927C25.1892 24.4747 25.46 25.1284 25.46 25.81Z" fill="#455A64"/>
<path d="M229.18 123.28C229.18 123.42 202.45 123.54 169.48 123.54C136.51 123.54 109.78 123.42 109.78 123.28C109.78 123.14 136.5 123.02 169.48 123.02C202.46 123.02 229.18 123.14 229.18 123.28Z" fill="#263238"/>
<path d="M200.14 127.39C200.14 127.54 185.82 127.65 168.14 127.65C150.46 127.65 136.14 127.54 136.14 127.39C136.14 127.24 150.46 127.13 168.14 127.13C185.82 127.13 200.14 127.25 200.14 127.39Z" fill="#263238"/>
<path d="M115.15 145.09H38.94V194.8H115.15V145.09Z" fill="#5E64FF"/>
<path d="M50 154.94C50.002 155.546 49.8242 156.138 49.4891 156.643C49.1541 157.147 48.6769 157.541 48.1179 157.774C47.559 158.007 46.9434 158.069 46.3491 157.952C45.7549 157.836 45.2087 157.545 44.7798 157.117C44.3508 156.69 44.0584 156.145 43.9395 155.551C43.8207 154.957 43.8807 154.341 44.112 153.781C44.3433 153.222 44.7355 152.743 45.2389 152.406C45.7423 152.07 46.3343 151.89 46.94 151.89C47.3413 151.889 47.739 151.967 48.1102 152.119C48.4814 152.272 48.8188 152.496 49.1031 152.78C49.3874 153.063 49.613 153.4 49.7669 153.771C49.9208 154.141 50 154.539 50 154.94Z" fill="#FAFAFA"/>
<path d="M111.02 157.51L108.51 155.05L106.18 157.44L106.1 150.32L110.94 150.27L111.02 157.51ZM108.51 154.75L108.59 154.82L110.8 156.98L110.73 150.49H106.32L106.39 156.86L108.51 154.75Z" fill="#FAFAFA"/>
<path d="M91.82 153.32C91.82 153.47 83.45 153.58 73.13 153.58C62.81 153.58 54.44 153.47 54.44 153.32C54.44 153.17 62.81 153.06 73.13 153.06C83.45 153.06 91.82 153.2 91.82 153.32Z" fill="#FAFAFA"/>
<path d="M68.85 157.51C66.4559 157.767 64.0465 157.854 61.64 157.77C59.2369 157.854 56.8308 157.767 54.44 157.51C56.8308 157.253 59.2369 157.166 61.64 157.25C64.0465 157.166 66.4559 157.253 68.85 157.51Z" fill="#FAFAFA"/>
<path d="M207.58 145.09H131.37V194.8H207.58V145.09Z" fill="#455A64"/>
<path d="M206.61 200.57C206.61 200.72 190.13 200.83 169.79 200.83C149.45 200.83 132.97 200.72 132.97 200.57C132.97 200.42 149.45 200.31 169.79 200.31C190.13 200.31 206.61 200.43 206.61 200.57Z" fill="#263238"/>
<path d="M139.37 157.99C141.054 157.99 142.42 156.624 142.42 154.94C142.42 153.256 141.054 151.89 139.37 151.89C137.686 151.89 136.32 153.256 136.32 154.94C136.32 156.624 137.686 157.99 139.37 157.99Z" fill="#FAFAFA"/>
<path d="M203.45 157.51L200.94 155.05L198.61 157.44L198.53 150.32L203.37 150.27L203.45 157.51ZM200.94 154.75L201.01 154.82L203.22 156.98L203.15 150.49H198.75L198.82 156.86L200.94 154.75Z" fill="#FAFAFA"/>
<path d="M184.25 153.32C184.25 153.47 175.88 153.58 165.56 153.58C155.24 153.58 146.86 153.47 146.86 153.32C146.86 153.17 155.23 153.06 165.56 153.06C175.89 153.06 184.25 153.2 184.25 153.32Z" fill="#FAFAFA"/>
<path d="M161.28 157.51C156.48 157.857 151.66 157.857 146.86 157.51C151.66 157.163 156.48 157.163 161.28 157.51Z" fill="#FAFAFA"/>
<path d="M300.01 145.09H223.8V194.8H300.01V145.09Z" fill="#5E64FF"/>
<path d="M299.01 200.57C299.01 200.72 282.52 200.83 262.19 200.83C241.86 200.83 225.36 200.72 225.36 200.57C225.36 200.42 241.85 200.31 262.19 200.31C282.53 200.31 299.01 200.43 299.01 200.57Z" fill="#263238"/>
<path d="M234.85 154.94C234.85 155.543 234.671 156.133 234.336 156.634C234.001 157.136 233.524 157.527 232.967 157.758C232.41 157.989 231.797 158.049 231.205 157.931C230.613 157.814 230.07 157.523 229.643 157.097C229.217 156.67 228.926 156.127 228.809 155.535C228.691 154.943 228.751 154.33 228.982 153.773C229.213 153.215 229.604 152.739 230.106 152.404C230.607 152.069 231.197 151.89 231.8 151.89C232.202 151.883 232.602 151.957 232.975 152.108C233.348 152.259 233.687 152.484 233.972 152.768C234.256 153.053 234.481 153.392 234.632 153.765C234.782 154.138 234.857 154.538 234.85 154.94Z" fill="#FAFAFA"/>
<path d="M295.88 157.51L293.37 155.05L291.03 157.44L290.96 150.32L295.8 150.27L295.88 157.51ZM293.36 154.75L293.44 154.82L295.65 156.98L295.58 150.49H291.18L291.25 156.86L293.36 154.75Z" fill="#FAFAFA"/>
<path d="M276.68 153.32C276.68 153.47 268.31 153.58 257.99 153.58C247.67 153.58 239.29 153.47 239.29 153.32C239.29 153.17 247.66 153.06 257.99 153.06C268.32 153.06 276.68 153.2 276.68 153.32Z" fill="#FAFAFA"/>
<path d="M253.71 157.51C248.91 157.857 244.09 157.857 239.29 157.51C244.09 157.163 248.91 157.163 253.71 157.51Z" fill="#FAFAFA"/>
<path d="M326.66 170.61C326.66 172.701 326.04 174.744 324.879 176.482C323.717 178.221 322.066 179.575 320.135 180.375C318.204 181.175 316.078 181.385 314.028 180.977C311.978 180.569 310.094 179.562 308.616 178.084C307.138 176.606 306.131 174.723 305.723 172.672C305.315 170.622 305.525 168.497 306.325 166.565C307.125 164.634 308.479 162.983 310.218 161.821C311.956 160.66 313.999 160.04 316.09 160.04C318.893 160.04 321.582 161.154 323.564 163.136C325.546 165.118 326.66 167.807 326.66 170.61Z" fill="#E0E0E0"/>
<path d="M314.49 175.11C314.936 174.604 315.431 174.145 315.97 173.74C316.92 172.92 318.25 171.82 319.73 170.62V170.9L319.66 170.84C318.2 169.57 316.89 168.41 315.96 167.55C315.428 167.119 314.939 166.636 314.5 166.11C315.078 166.475 315.624 166.89 316.13 167.35C317.13 168.16 318.45 169.29 319.91 170.55L319.98 170.62L320.15 170.77L319.98 170.91C318.49 172.11 317.14 173.18 316.15 173.91C315.635 174.361 315.079 174.762 314.49 175.11Z" fill="#263238"/>
<path d="M10.75 170.61C10.754 168.52 11.3772 166.479 12.5411 164.743C13.7049 163.008 15.3571 161.656 17.2889 160.859C19.2207 160.062 21.3453 159.856 23.3944 160.266C25.4434 160.676 27.3249 161.684 28.8012 163.163C30.2774 164.642 31.2821 166.525 31.6884 168.575C32.0946 170.625 31.8841 172.749 31.0835 174.68C30.2829 176.61 28.9281 178.259 27.1903 179.42C25.4525 180.581 23.4097 181.2 21.32 181.2C19.9303 181.2 18.5542 180.926 17.2704 180.394C15.9867 179.861 14.8206 179.081 13.8388 178.097C12.857 177.113 12.0789 175.946 11.5489 174.661C11.0188 173.376 10.7474 172 10.75 170.61Z" fill="#E0E0E0"/>
<path d="M22.92 166.11C22.4745 166.616 21.9786 167.075 21.44 167.48C20.44 168.29 19.16 169.4 17.68 170.6V170.31L17.75 170.38C19.21 171.64 20.52 172.81 21.45 173.66C21.9843 174.093 22.4734 174.579 22.91 175.11C22.3317 174.745 21.7864 174.33 21.28 173.87C20.28 173.06 18.96 171.93 17.5 170.66L17.43 170.6L17.26 170.45L17.43 170.31C18.92 169.11 20.27 168.03 21.26 167.31C21.7761 166.861 22.3317 166.459 22.92 166.11Z" fill="#263238"/>
<path d="M8.83905 34.2748L105.075 33.9741C105.95 39.047 100.794 43.3264 95.734 44.3005C90.6745 45.2746 85.417 44.2743 80.322 45.0895C70.1512 46.6993 62.5664 55.1444 53.2292 59.4672C37.894 66.5773 17.984 61.087 8.90933 46.8198L9.26425 111.686L9.25273 108.434C19.6693 89.7861 42.9504 80.6722 64.3068 79.9093C85.6632 79.1464 106.604 84.9216 127.638 88.4923C148.673 92.0629 171.277 93.2484 190.52 83.953C206.002 76.4776 217.687 63.0089 232.01 53.5121C261.073 34.1539 301.292 33.1239 331.32 50.9245L331.634 109.948L9.26425 111.686L332.011 110.126L331.595 32.7144L8.83905 34.2748ZM142.096 71.8366C139.94 71.8484 137.829 71.2205 136.03 70.0326C134.231 68.8446 132.825 67.1498 131.989 65.1626C131.153 63.1753 130.925 60.9849 131.334 58.8682C131.744 56.7515 132.771 54.8037 134.287 53.2711C135.804 51.7384 137.74 50.6898 139.852 50.2579C141.964 49.8259 144.157 50.0299 146.153 50.8442C148.15 51.6585 149.859 53.0465 151.067 54.8325C152.274 56.6186 152.925 58.7226 152.936 60.8784C152.945 62.3101 152.672 63.7295 152.132 65.0554C151.591 66.3813 150.795 67.5876 149.788 68.6055C148.781 69.6233 147.584 70.4326 146.264 70.987C144.944 71.5414 143.527 71.8302 142.096 71.8366Z" fill="#5E64FF"/>
<path d="M331.368 50.8729C301.339 33.0523 261.122 34.1022 232.058 53.4604C217.736 62.9572 206.052 76.4759 190.568 83.9013C171.335 93.1964 148.751 92.0103 127.687 88.4406C106.622 84.871 85.6714 79.0961 64.355 79.8576C43.0386 80.6192 19.7275 89.734 9.30093 108.383L9.31245 111.634L331.692 109.886L331.368 50.8729ZM161.732 101.721C161.481 101.721 161.235 101.647 161.026 101.508C160.817 101.369 160.654 101.172 160.557 100.94C160.46 100.708 160.435 100.453 160.483 100.206C160.531 99.9599 160.652 99.7334 160.829 99.5553C161.006 99.3772 161.232 99.2556 161.478 99.2059C161.724 99.1562 161.979 99.1806 162.212 99.2759C162.444 99.3713 162.643 99.5335 162.783 99.7418C162.923 99.9502 162.998 100.195 162.999 100.447C163.004 100.62 162.974 100.792 162.909 100.953C162.844 101.114 162.747 101.26 162.624 101.382C162.5 101.503 162.353 101.598 162.191 101.66C162.029 101.722 161.856 101.75 161.683 101.742L161.732 101.721ZM169.736 101.686C169.485 101.689 169.238 101.617 169.028 101.48C168.818 101.342 168.653 101.146 168.554 100.915C168.456 100.684 168.428 100.429 168.474 100.182C168.521 99.935 168.639 99.7074 168.815 99.5279C168.991 99.3485 169.216 99.2251 169.461 99.1735C169.707 99.1218 169.963 99.1442 170.196 99.2378C170.429 99.3314 170.629 99.492 170.771 99.6993C170.912 99.9066 170.99 100.151 170.992 100.402C170.997 100.572 170.968 100.74 170.906 100.898C170.845 101.056 170.752 101.2 170.634 101.321C170.516 101.443 170.375 101.539 170.219 101.606C170.063 101.672 169.896 101.706 169.726 101.707L169.736 101.686ZM177.739 101.642C177.487 101.644 177.241 101.572 177.03 101.434C176.82 101.296 176.655 101.099 176.557 100.868C176.458 100.636 176.431 100.381 176.478 100.133C176.526 99.8863 176.645 99.6588 176.822 99.4798C176.999 99.3007 177.225 99.1781 177.471 99.1276C177.717 99.0771 177.973 99.101 178.206 99.1961C178.439 99.2913 178.638 99.4534 178.779 99.662C178.92 99.8706 178.995 100.116 178.996 100.368C179.002 100.701 178.877 101.024 178.647 101.265C178.418 101.507 178.103 101.649 177.77 101.661L177.739 101.642ZM300.432 76.599C299.94 77.1012 299.31 77.4459 298.621 77.5893C297.933 77.7328 297.217 77.6685 296.565 77.4047C295.913 77.1409 295.354 76.6894 294.96 76.1075C294.565 75.5257 294.351 74.8396 294.347 74.1364C294.343 73.4332 294.547 72.7444 294.935 72.1576C295.322 71.5708 295.875 71.1123 296.524 70.8403C297.172 70.5683 297.887 70.495 298.577 70.6297C299.267 70.7645 299.902 71.1012 300.401 71.5971C300.734 71.9227 301.001 72.3108 301.185 72.7393C301.368 73.1679 301.466 73.6284 301.472 74.0946C301.478 74.5609 301.391 75.0237 301.218 75.4567C301.045 75.8896 300.788 76.2842 300.463 76.618L300.432 76.599Z" fill="#5E64FF"/>
<g opacity="0.3">
<path d="M331.368 50.8729C301.339 33.0523 261.122 34.1022 232.058 53.4604C217.736 62.9572 206.052 76.4759 190.568 83.9013C171.335 93.1964 148.751 92.0103 127.687 88.4406C106.622 84.871 85.6714 79.0961 64.355 79.8576C43.0386 80.6192 19.7275 89.734 9.30093 108.383L9.31245 111.634L331.692 109.886L331.368 50.8729ZM161.732 101.721C161.481 101.721 161.235 101.647 161.026 101.508C160.817 101.369 160.654 101.172 160.557 100.94C160.46 100.708 160.435 100.453 160.483 100.206C160.531 99.9599 160.652 99.7334 160.829 99.5553C161.006 99.3772 161.232 99.2556 161.478 99.2059C161.724 99.1562 161.979 99.1806 162.212 99.2759C162.444 99.3713 162.643 99.5335 162.783 99.7418C162.923 99.9502 162.998 100.195 162.999 100.447C163.004 100.62 162.974 100.792 162.909 100.953C162.844 101.114 162.747 101.26 162.624 101.382C162.5 101.503 162.353 101.598 162.191 101.66C162.029 101.722 161.856 101.75 161.683 101.742L161.732 101.721ZM169.736 101.686C169.485 101.689 169.238 101.617 169.028 101.48C168.818 101.342 168.653 101.146 168.554 100.915C168.456 100.684 168.428 100.429 168.474 100.182C168.521 99.935 168.639 99.7074 168.815 99.5279C168.991 99.3485 169.216 99.2251 169.461 99.1735C169.707 99.1218 169.963 99.1442 170.196 99.2378C170.429 99.3314 170.629 99.492 170.771 99.6993C170.912 99.9066 170.99 100.151 170.992 100.402C170.997 100.572 170.968 100.74 170.906 100.898C170.845 101.056 170.752 101.2 170.634 101.321C170.516 101.443 170.375 101.539 170.219 101.606C170.063 101.672 169.896 101.706 169.726 101.707L169.736 101.686ZM177.739 101.642C177.487 101.644 177.241 101.572 177.03 101.434C176.82 101.296 176.655 101.099 176.557 100.868C176.458 100.636 176.431 100.381 176.478 100.133C176.526 99.8863 176.645 99.6588 176.822 99.4798C176.999 99.3007 177.225 99.1781 177.471 99.1276C177.717 99.0771 177.973 99.101 178.206 99.1961C178.439 99.2913 178.638 99.4534 178.779 99.662C178.92 99.8706 178.995 100.116 178.996 100.368C179.002 100.701 178.877 101.024 178.647 101.265C178.418 101.507 178.103 101.649 177.77 101.661L177.739 101.642ZM300.432 76.599C299.94 77.1012 299.31 77.4459 298.621 77.5893C297.933 77.7328 297.217 77.6685 296.565 77.4047C295.913 77.1409 295.354 76.6894 294.96 76.1075C294.565 75.5257 294.351 74.8396 294.347 74.1364C294.343 73.4332 294.547 72.7444 294.935 72.1576C295.322 71.5708 295.875 71.1123 296.524 70.8403C297.172 70.5683 297.887 70.495 298.577 70.6297C299.267 70.7645 299.902 71.1012 300.401 71.5971C300.734 71.9227 301.001 72.3108 301.185 72.7393C301.368 73.1679 301.466 73.6284 301.472 74.0946C301.478 74.5609 301.391 75.0237 301.218 75.4567C301.045 75.8896 300.788 76.2842 300.463 76.618L300.432 76.599Z" fill="black"/>
</g>
<path d="M161.676 99.2112C161.424 99.212 161.179 99.2874 160.97 99.428C160.762 99.5686 160.599 99.768 160.504 100.001C160.409 100.234 160.385 100.49 160.436 100.736C160.486 100.983 160.609 101.208 160.788 101.385C160.967 101.562 161.195 101.681 161.442 101.729C161.689 101.776 161.944 101.749 162.176 101.65C162.407 101.552 162.605 101.387 162.742 101.177C162.88 100.966 162.952 100.72 162.95 100.468C162.947 100.133 162.811 99.8127 162.572 99.5772C162.333 99.3417 162.011 99.2102 161.676 99.2112Z" fill="#263238"/>
<path d="M169.709 99.1657C169.458 99.1664 169.212 99.2419 169.003 99.3825C168.795 99.5231 168.633 99.7225 168.537 99.9554C168.442 100.188 168.418 100.444 168.469 100.691C168.519 100.937 168.642 101.163 168.821 101.34C169 101.516 169.228 101.636 169.475 101.683C169.722 101.73 169.977 101.703 170.209 101.605C170.441 101.507 170.638 101.342 170.776 101.131C170.913 100.921 170.986 100.674 170.983 100.423C170.983 100.256 170.949 100.092 170.885 99.9382C170.821 99.7848 170.727 99.6456 170.608 99.5287C170.49 99.4119 170.349 99.3196 170.195 99.2573C170.041 99.195 169.876 99.1638 169.709 99.1657Z" fill="#263238"/>
<path d="M177.752 99.1198C177.501 99.1206 177.256 99.1959 177.048 99.336C176.839 99.4762 176.677 99.675 176.582 99.9073C176.486 100.14 176.462 100.395 176.512 100.641C176.561 100.887 176.683 101.113 176.861 101.29C177.039 101.467 177.266 101.588 177.512 101.636C177.759 101.684 178.014 101.659 178.246 101.562C178.477 101.465 178.675 101.302 178.814 101.093C178.953 100.884 179.027 100.638 179.027 100.387C179.027 100.22 178.995 100.054 178.931 99.8992C178.868 99.7445 178.774 99.6042 178.655 99.4862C178.536 99.3683 178.395 99.2751 178.241 99.2122C178.086 99.1493 177.92 99.1179 177.752 99.1198Z" fill="#263238"/>
<path d="M53.2288 59.4572C62.5661 55.1345 70.1509 46.6894 80.3216 45.0796C85.4167 44.2644 90.6851 45.2943 95.7337 44.2905C100.782 43.2868 105.948 39.0071 105.075 33.9641L8.83869 34.2649L8.90691 46.7499L8.90862 46.7998C17.9836 61.077 37.8937 66.5674 53.2288 59.4572Z" fill="#5E64FF"/>
<g opacity="0.3">
<path d="M53.2288 59.4572C62.5661 55.1345 70.1509 46.6894 80.3216 45.0796C85.4167 44.2644 90.6851 45.2943 95.7337 44.2905C100.782 43.2868 105.948 39.0071 105.075 33.9641L8.83869 34.2649L8.90691 46.7499L8.90862 46.7998C17.9836 61.077 37.8937 66.5674 53.2288 59.4572Z" fill="white"/>
</g>
<path d="M141.978 50.0379C139.822 50.0494 137.718 50.7 135.932 51.9073C134.146 53.1147 132.758 54.8245 131.944 56.8207C131.13 58.8168 130.925 61.0097 131.357 63.1218C131.789 65.2339 132.838 67.1705 134.371 68.6867C135.903 70.2028 137.851 71.2305 139.968 71.6396C142.084 72.0488 144.275 71.821 146.262 70.9853C148.249 70.1495 149.944 68.7431 151.132 66.9441C152.32 65.1451 152.948 63.0342 152.936 60.8784C152.921 57.9878 151.757 55.2217 149.702 53.1887C147.647 51.1558 144.869 50.0224 141.978 50.0379Z" fill="#5E64FF"/>
<g opacity="0.3">
<path d="M141.978 50.0379C139.822 50.0494 137.718 50.7 135.932 51.9073C134.146 53.1147 132.758 54.8245 131.944 56.8207C131.13 58.8168 130.925 61.0097 131.357 63.1218C131.789 65.2339 132.838 67.1705 134.371 68.6867C135.903 70.2028 137.851 71.2305 139.968 71.6396C142.084 72.0488 144.275 71.821 146.262 70.9853C148.249 70.1495 149.944 68.7431 151.132 66.9441C152.32 65.1451 152.948 63.0342 152.936 60.8784C152.921 57.9878 151.757 55.2217 149.702 53.1887C147.647 51.1558 144.869 50.0224 141.978 50.0379Z" fill="black"/>
</g>
</svg>
