<svg id="visual" viewBox="0 0 1200 1200" width="1200" height="1200" xmlns="http://www.w3.org/2000/svg" xmlns:xlink="http://www.w3.org/1999/xlink" version="1.1"><rect x="0" y="0" width="1200" height="1200" fill="#ffffff"></rect><g transform="translate(638.8193792350067 625.5604713912575)"><path d="M196.4 -355.1C248.5 -310.2 280.6 -245.3 300.8 -182.8C320.9 -120.3 329.2 -60.2 334.3 2.9C339.3 66 341.1 132 314 182.5C287 233 231 268.1 173.8 297.2C116.7 326.4 58.3 349.7 -6.8 361.5C-72 373.4 -144 373.7 -208.7 348.9C-273.3 324.1 -330.7 274 -366.8 211.7C-403 149.3 -418 74.7 -414.4 2.1C-410.8 -70.5 -388.6 -141 -349.5 -198.3C-310.4 -255.6 -254.4 -299.7 -193.4 -339.5C-132.3 -379.2 -66.2 -414.6 3 -419.8C72.2 -425 144.3 -400 196.4 -355.1" fill="#e7e8f9"></path></g></svg>