<svg id="visual" viewBox="0 0 1200 1200" width="1200" height="1200" xmlns="http://www.w3.org/2000/svg" xmlns:xlink="http://www.w3.org/1999/xlink" version="1.1"><rect x="0" y="0" width="1200" height="1200" fill="#ffffff"></rect><g transform="translate(618.5065478654972 567.4435875288103)"><path d="M183.2 -326.1C216.4 -298.1 207.8 -206.6 224.5 -141.6C241.1 -76.7 283.1 -38.3 305.3 12.8C327.5 64 330 128 295.5 161.9C260.9 195.8 189.2 199.7 133.8 241.2C78.3 282.7 39.2 361.8 -16 389.6C-71.2 417.3 -142.3 393.5 -187.8 346.3C-233.3 299 -253 228.3 -287.1 166.6C-321.2 105 -369.6 52.5 -356.6 7.5C-343.6 -37.5 -269.2 -75 -219.8 -110.1C-170.4 -145.2 -146 -177.8 -113.5 -206.2C-81 -234.6 -40.5 -258.8 17.2 -288.7C75 -318.6 150 -354.1 183.2 -326.1" fill="#dcdeff"></path></g></svg>