<svg id="visual" viewBox="0 0 500 500" width="500" height="500" xmlns="http://www.w3.org/2000/svg" xmlns:xlink="http://www.w3.org/1999/xlink" version="1.1"><rect x="0" y="0" width="500" height="500" fill="none"></rect><g transform="translate(294.0283738824899 295.77470583704263)"><path d="M125.1 -238.8C148.2 -203.3 143.4 -141.7 144 -97.5C144.7 -53.3 150.9 -26.7 159.5 5C168.2 36.7 179.4 73.3 166.2 95.9C153.1 118.4 115.6 126.9 83.8 141.2C52.1 155.6 26 175.8 -5.9 186C-37.8 196.2 -75.7 196.4 -104.4 180.3C-133.1 164.2 -152.7 131.9 -184.8 99.1C-216.9 66.3 -261.4 33.2 -260.3 0.7C-259.1 -31.8 -212.3 -63.7 -187.3 -108.8C-162.4 -153.9 -159.3 -212.3 -131.7 -245.2C-104.2 -278.1 -52.1 -285.5 -0.5 -284.6C51 -283.7 102 -274.3 125.1 -238.8" fill="#3035a7"></path></g></svg>