<svg id="visual" viewBox="0 0 500 500" width="500" height="500" xmlns="http://www.w3.org/2000/svg" xmlns:xlink="http://www.w3.org/1999/xlink" version="1.1"><rect x="0" y="0" width="500" height="500" fill="#ffffff"></rect><g transform="translate(267.02975423422424 275.4331764899822)"><path d="M75.1 -134.6C93.9 -119.2 103.2 -92.1 108.6 -67.7C114.1 -43.3 115.5 -21.7 122 3.7C128.5 29.2 140 58.3 129.6 74.1C119.2 89.8 86.9 92.1 61.6 95.2C36.3 98.3 18.2 102.1 1.3 99.9C-15.6 97.7 -31.3 89.5 -58.3 87.4C-85.4 85.4 -123.9 89.6 -145.6 76C-167.3 62.5 -172.1 31.3 -164.4 4.5C-156.7 -22.3 -136.4 -44.7 -119.2 -66C-102 -87.4 -88 -107.8 -68.7 -122.8C-49.3 -137.8 -24.7 -147.4 1.7 -150.4C28.2 -153.5 56.3 -149.9 75.1 -134.6" fill="#3035a7"></path></g></svg>